<svg width="25" height="25" viewBox="0 0 25 25" fill="none" xmlns="http://www.w3.org/2000/svg">
    <path d="M23.9583 4.16666V10.4167H17.7083" stroke="white" stroke-width="2" stroke-linecap="round" stroke-linejoin="round"/>
    <path d="M1.04166 20.8333V14.5833H7.29166" stroke="white" stroke-width="2" stroke-linecap="round" stroke-linejoin="round"/>
    <path d="M3.65625 9.37501C4.18455 7.88208 5.08243 6.5473 6.26611 5.49524C7.44979 4.44317 8.88069 3.7081 10.4253 3.35861C11.9699 3.00912 13.5779 3.05661 15.0992 3.49665C16.6204 3.93668 18.0055 4.75492 19.125 5.87501L23.9583 10.4167M1.04166 14.5833L5.875 19.125C6.99453 20.2451 8.37955 21.0633 9.90084 21.5034C11.4221 21.9434 13.0301 21.9909 14.5747 21.6414C16.1193 21.2919 17.5502 20.5568 18.7339 19.5048C19.9176 18.4527 20.8154 17.1179 21.3437 15.625" stroke="white" stroke-width="2" stroke-linecap="round" stroke-linejoin="round"/>
</svg>